<?xml version="1.0" encoding="utf-8"?>
<svg viewBox="0 0 800 800" style="shape-rendering:geometricPrecision; text-rendering:geometricPrecision; image-rendering:optimizeQuality; fill-rule:evenodd; clip-rule:evenodd" xmlns="http://www.w3.org/2000/svg" width="800px" height="800px">
  <g>
    <path style="opacity:0.959" fill="#fdfdfd" d="M 384.5,10.5 C 390.7,10.0157 396.7,10.8491 402.5,13C 510.071,74.0308 616.904,136.197 723,199.5C 728.946,208.938 732.28,219.271 733,230.5C 734.894,275.979 736.061,321.479 736.5,367C 737.524,501.229 688.524,612.895 589.5,702C 531.995,750.085 465.829,779.252 391,789.5C 256.734,757.883 160.068,679.883 101,555.5C 77.9299,501.883 65.2632,445.883 63,387.5C 61.1302,334.164 61.1302,280.831 63,227.5C 64.2697,218.137 68.7697,210.637 76.5,205C 177.759,137.901 280.426,73.0678 384.5,10.5 Z"/>
  </g>
  <g>
    <path style="opacity:1" fill="#212c33" d="M 710.5,466.5 C 710.217,465.711 709.717,465.044 709,464.5C 707.338,471.139 705.838,477.806 704.5,484.5C 702.527,485.331 700.527,485.498 698.5,485C 698.126,488.477 696.626,491.31 694,493.5C 690.389,492.465 689.889,490.798 692.5,488.5C 691.96,487.252 691.293,486.085 690.5,485C 690.833,484.667 691.167,484.333 691.5,484C 688.16,479.801 684.493,479.635 680.5,483.5C 678.367,486.338 677.034,489.505 676.5,493C 674.702,494.505 672.868,494.672 671,493.5C 670.431,497.361 669.598,497.361 668.5,493.5C 667.459,495.991 666.626,495.991 666,493.5C 665.503,496.146 665.336,498.813 665.5,501.5C 666.5,501.5 667.5,501.5 668.5,501.5C 668.5,502.5 668.5,503.5 668.5,504.5C 670.288,504.785 671.955,504.452 673.5,503.5C 674.018,500.684 674.851,498.018 676,495.5C 677.188,496.563 677.688,497.897 677.5,499.5C 680.423,500.453 683.256,500.786 686,500.5C 686.749,501.635 686.583,502.635 685.5,503.5C 683.877,502.509 682.877,503.176 682.5,505.5C 683.005,508.517 684.505,510.851 687,512.5C 688.244,515.547 688.744,518.547 688.5,521.5C 687.667,523.167 686.833,524.833 686,526.5C 685,526.833 684,527.167 683,527.5C 683.304,530.97 681.971,533.97 679,536.5C 678.667,536.167 678.333,535.833 678,535.5C 677.333,536.833 677.333,538.167 678,539.5C 679.342,538.098 680.176,538.431 680.5,540.5C 680.02,543.492 678.353,544.659 675.5,544C 674.335,542.916 673.002,542.083 671.5,541.5C 668.642,546.702 666.309,546.369 664.5,540.5C 663.624,539.749 662.624,539.249 661.5,539C 663.5,538.667 665.5,538.333 667.5,538C 665.567,537.749 663.734,537.249 662,536.5C 661,537.833 660,539.167 659,540.5C 658.333,539.833 657.667,539.167 657,538.5C 656.764,540.764 656.264,542.931 655.5,545C 657.384,545.216 659.051,545.883 660.5,547C 660.336,550.83 660.336,554.996 660.5,559.5C 656.796,558.227 653.296,558.227 650,559.5C 648.751,556.899 647.918,554.566 647.5,552.5C 646.914,552.709 646.414,553.043 646,553.5C 645.667,556.167 645.333,558.833 645,561.5C 643.211,559.771 641.044,559.104 638.5,559.5C 638.421,564.492 637.421,564.492 635.5,559.5C 634.5,560 633.5,560.5 632.5,561C 633.833,562 635.167,563 636.5,564C 633.745,565.711 631.411,567.878 629.5,570.5C 630.833,572.167 632.167,573.833 633.5,575.5C 632.681,580.172 631.515,584.172 630,587.5C 629.667,587.833 629.333,588.167 629,588.5C 628.667,587.167 628.333,585.833 628,584.5C 626.391,585.15 624.891,584.65 623.5,583C 621.866,582.506 620.199,582.34 618.5,582.5C 618.351,583.552 618.517,584.552 619,585.5C 622.178,586.67 624.678,588.67 626.5,591.5C 626.077,594.603 625.077,597.436 623.5,600C 625.329,600.273 626.829,601.107 628,602.5C 629.58,599.746 630.746,599.912 631.5,603C 630.059,604.945 628.393,606.779 626.5,608.5C 625.289,609.72 625.289,610.887 626.5,612C 624.321,613.848 622.487,616.015 621,618.5C 620.378,616.269 619.211,614.435 617.5,613C 618.993,611.632 620.493,611.465 622,612.5C 622.819,609.854 623.152,606.854 623,603.5C 620.61,604.891 618.943,606.891 618,609.5C 615.154,605.173 611.821,601.173 608,597.5C 607.151,600.521 605.651,601.021 603.5,599C 604.711,598.107 604.711,597.274 603.5,596.5C 602.103,598.606 600.27,600.273 598,601.5C 599.246,599.795 599.746,597.795 599.5,595.5C 630.844,552.135 651.844,504.135 662.5,451.5C 664.237,446.77 665.237,441.77 665.5,436.5C 669.074,406.616 670.407,376.616 669.5,346.5C 670.167,359.34 670.833,372.34 671.5,385.5C 672.666,364.508 672.833,343.508 672,322.5C 672.07,319.008 671.237,316.008 669.5,313.5C 669.453,289.254 668.786,265.087 667.5,241C 606.502,205.17 545.835,168.837 485.5,132C 454.991,114.245 424.324,96.7447 393.5,79.5C 388.175,81.3186 383.175,83.8186 378.5,87C 295.167,141 211.833,195 128.5,249C 126.771,250.789 126.104,252.956 126.5,255.5C 110.167,255.5 93.8333,255.5 77.5,255.5C 77.3336,246.827 77.5002,238.16 78,229.5C 79.2388,224.259 82.0721,220.092 86.5,217C 186.153,151.834 286.82,88.1672 388.5,26C 389.833,25.3333 391.167,25.3333 392.5,26C 493.323,82.9084 593.656,140.575 693.5,199C 700.099,202.548 706.265,206.714 712,211.5C 715.392,219.452 717.392,227.786 718,236.5C 720.576,293.829 720.909,351.163 719,408.5C 717.462,428.165 714.628,447.498 710.5,466.5 Z"/>
  </g>
  <g>
    <path style="opacity:1" fill="#cdd1de" d="M 669.5,313.5 C 669.5,324.5 669.5,335.5 669.5,346.5C 670.407,376.616 669.074,406.616 665.5,436.5C 663.549,441.184 662.549,446.184 662.5,451.5C 651.844,504.135 630.844,552.135 599.5,595.5C 597.1,597.296 595.433,599.63 594.5,602.5C 551.296,655.536 497.129,692.536 432,713.5C 416.459,718.015 400.625,720.848 384.5,722C 376.806,735.217 368.973,748.384 361,761.5C 360.517,762.448 360.351,763.448 360.5,764.5C 347.562,759.299 334.562,754.299 321.5,749.5C 330.835,735.823 338.835,721.49 345.5,706.5C 321.934,697.056 299.934,685.056 279.5,670.5C 281.017,670.511 282.184,671.177 283,672.5C 283.394,668.136 284.728,664.136 287,660.5C 291.333,657.518 292.999,658.518 292,663.5C 292.853,661.875 293.853,661.542 295,662.5C 298.791,661.092 302.625,659.759 306.5,658.5C 309.107,659.137 311.44,660.304 313.5,662C 309.538,663.211 308.871,665.211 311.5,668C 311.499,669.399 311.165,670.899 310.5,672.5C 311.247,672.736 312.08,673.07 313,673.5C 314.53,675.226 315.53,677.226 316,679.5C 317.101,675.4 319.101,674.733 322,677.5C 324.409,675.691 325.409,673.358 325,670.5C 323.951,671.517 322.784,671.684 321.5,671C 320.495,669.493 319.162,668.327 317.5,667.5C 318.729,666.719 320.062,666.219 321.5,666C 318.332,665.418 317.999,664.418 320.5,663C 319.235,661.663 318.735,660.163 319,658.5C 321.301,659.867 323.801,660.534 326.5,660.5C 346.98,670.737 367.98,679.904 389.5,688C 394.223,688.624 398.89,688.29 403.5,687C 495.523,661.573 562.69,606.073 605,520.5C 629.37,467.564 639.87,411.898 636.5,353.5C 636.369,324.494 635.869,295.494 635,266.5C 634.3,262.934 632.467,260.1 629.5,258C 619.337,251.084 609.003,244.417 598.5,238C 541.206,204.531 484.206,170.865 427.5,137C 416.667,130.501 405.501,124.667 394,119.5C 316.984,167.182 240.484,215.682 164.5,265C 162.622,266.543 161.122,268.376 160,270.5C 159.778,315.525 160.778,360.525 163,405.5C 167.839,452.128 181.005,496.128 202.5,537.5C 201.957,537.56 201.624,537.893 201.5,538.5C 203.447,540.276 203.78,542.276 202.5,544.5C 201.614,543.675 201.281,542.675 201.5,541.5C 199.833,541.5 198.167,541.5 196.5,541.5C 194.696,548.711 192.363,549.045 189.5,542.5C 190.362,540.233 192.029,539.233 194.5,539.5C 194.5,538.5 194.5,537.5 194.5,536.5C 195.675,536.719 196.675,536.386 197.5,535.5C 195.429,534.024 194.429,532.024 194.5,529.5C 192.143,529.663 189.81,529.497 187.5,529C 186.167,528.333 186.167,527.667 187.5,527C 186.833,526.667 186.167,526.333 185.5,526C 185.833,524.333 186.167,522.667 186.5,521C 184.048,519.69 181.548,518.524 179,517.5C 179.141,521.831 177.808,522.498 175,519.5C 174.774,522.095 174.274,524.595 173.5,527C 175.158,527.725 175.658,528.892 175,530.5C 172.356,527.67 171.522,528.004 172.5,531.5C 171.502,534.028 170.669,534.028 170,531.5C 169.667,533.167 169.333,534.833 169,536.5C 167.318,535.135 167.151,533.635 168.5,532C 167.376,531.751 166.376,531.251 165.5,530.5C 163.146,525.386 160.646,520.386 158,515.5C 157.242,511.315 155.909,507.315 154,503.5C 153.51,504.793 153.343,506.127 153.5,507.5C 151.883,505.879 150.716,503.879 150,501.5C 137.428,463.479 130.595,424.479 129.5,384.5C 113.163,384.333 96.8299,384.5 80.5,385C 79.5939,386.699 79.2606,388.533 79.5,390.5C 78.2323,376.016 77.5656,361.35 77.5,346.5C 94.3417,346.83 111.008,346.497 127.5,345.5C 127.5,328.5 127.5,311.5 127.5,294.5C 125.5,294.5 123.5,294.5 121.5,294.5C 106.833,294.5 92.1667,294.5 77.5,294.5C 77.5,281.5 77.5,268.5 77.5,255.5C 93.8333,255.5 110.167,255.5 126.5,255.5C 126.104,252.956 126.771,250.789 128.5,249C 211.833,195 295.167,141 378.5,87C 383.175,83.8186 388.175,81.3186 393.5,79.5C 424.324,96.7447 454.991,114.245 485.5,132C 545.835,168.837 606.502,205.17 667.5,241C 668.786,265.087 669.453,289.254 669.5,313.5 Z"/>
  </g>
  <g>
    <path style="opacity:1" fill="#fefefe" d="M 326.5,660.5 C 273.883,630.883 232.55,589.883 202.5,537.5C 181.005,496.128 167.839,452.128 163,405.5C 160.778,360.525 159.778,315.525 160,270.5C 161.122,268.376 162.622,266.543 164.5,265C 240.484,215.682 316.984,167.182 394,119.5C 405.501,124.667 416.667,130.501 427.5,137C 484.206,170.865 541.206,204.531 598.5,238C 609.003,244.417 619.337,251.084 629.5,258C 632.467,260.1 634.3,262.934 635,266.5C 635.869,295.494 636.369,324.494 636.5,353.5C 639.87,411.898 629.37,467.564 605,520.5C 562.69,606.073 495.523,661.573 403.5,687C 398.89,688.29 394.223,688.624 389.5,688C 367.98,679.904 346.98,670.737 326.5,660.5 Z"/>
  </g>
  <g>
    <path style="opacity:1" fill="#6b7579" d="M 429.5,191.5 C 409.183,192.399 388.849,192.732 368.5,192.5C 384.664,191.619 400.998,190.953 417.5,190.5C 421.681,190.501 425.681,190.834 429.5,191.5 Z"/>
  </g>
  <g>
    <path style="opacity:1" fill="#202c33" d="M 429.5,191.5 C 430.331,204.66 430.831,217.994 431,231.5C 431.346,233.218 431.846,234.885 432.5,236.5C 456.245,241.437 479.579,247.937 502.5,256C 509.858,259.119 517.024,262.619 524,266.5C 521.296,288.021 517.296,309.355 512,330.5C 510.274,331.576 508.441,331.743 506.5,331C 479.418,318.083 451.085,309.416 421.5,305C 408.167,304.333 394.833,304.333 381.5,305C 366.052,305.8 354.219,312.634 346,325.5C 342.751,336.524 345.917,345.357 355.5,352C 359.007,354.254 362.673,356.254 366.5,358C 398.682,368.579 431.015,378.912 463.5,389C 480.616,394.891 496.616,402.891 511.5,413C 528.536,428.191 538.869,447.025 542.5,469.5C 542.716,478.533 542.383,487.533 541.5,496.5C 535.478,525.023 520.145,547.19 495.5,563C 478.245,572.753 459.911,579.753 440.5,584C 439.069,584.465 437.903,585.299 437,586.5C 435.859,600.315 435.026,614.148 434.5,628C 414.167,628.667 393.833,628.667 373.5,628C 372.807,614.531 372.14,601.031 371.5,587.5C 371.586,586.504 371.252,585.671 370.5,585C 363.554,583.65 356.554,582.817 349.5,582.5C 318.794,578.265 289.96,568.598 263,553.5C 262.333,551.5 262.333,549.5 263,547.5C 268.43,528.905 274.597,510.738 281.5,493C 284.257,492.416 286.923,492.75 289.5,494C 329.359,516.421 372.025,525.088 417.5,520C 428.394,517.924 438.727,514.257 448.5,509C 457.922,502.652 461.422,493.819 459,482.5C 455.192,473.359 448.692,466.859 439.5,463C 407.878,451.524 375.878,441.191 343.5,432C 320.42,424.886 300.253,413.052 283,396.5C 265.935,375.925 259.268,352.258 263,325.5C 269.903,294.824 287.07,271.991 314.5,257C 328.462,249.681 343.129,244.514 358.5,241.5C 365.733,241.935 368.733,238.602 367.5,231.5C 367.668,218.376 368.001,205.376 368.5,192.5C 388.849,192.732 409.183,192.399 429.5,191.5 Z"/>
  </g>
  <g>
    <path style="opacity:1" fill="#697377" d="M 367.5,231.5 C 368.733,238.602 365.733,241.935 358.5,241.5C 361.083,240.461 363.583,239.128 366,237.5C 366.191,235.292 366.691,233.292 367.5,231.5 Z"/>
  </g>
  <g>
    <path style="opacity:0.965" fill="#0f141d" d="M 77.5,295.5 C 78.5,295.5 79.5,295.5 80.5,295.5C 80.4262,312.177 80.7596,328.844 81.5,345.5C 80.5,345.5 79.5,345.5 78.5,345.5C 78.8064,342.615 78.4731,339.948 77.5,337.5C 77.5,323.5 77.5,309.5 77.5,295.5 Z"/>
  </g>
  <g>
    <path style="opacity:1" fill="#212c34" d="M 77.5,295.5 C 77.5,295.167 77.5,294.833 77.5,294.5C 92.1667,294.5 106.833,294.5 121.5,294.5C 116.684,295.326 111.684,295.826 106.5,296C 112.167,296.333 117.833,296.667 123.5,297C 124.43,298.395 124.43,299.895 123.5,301.5C 124.095,305.527 124.761,309.527 125.5,313.5C 124.805,322.365 124.805,331.532 125.5,341C 124.833,341.667 124.167,342.333 123.5,343C 110.487,343.167 97.4872,343.667 84.5,344.5C 98.8179,345.499 113.151,345.833 127.5,345.5C 111.008,346.497 94.3417,346.83 77.5,346.5C 77.5,343.5 77.5,340.5 77.5,337.5C 78.4731,339.948 78.8064,342.615 78.5,345.5C 79.5,345.5 80.5,345.5 81.5,345.5C 80.7596,328.844 80.4262,312.177 80.5,295.5C 79.5,295.5 78.5,295.5 77.5,295.5 Z"/>
  </g>
  <g>
    <path style="opacity:1" fill="#10151d" d="M 669.5,313.5 C 671.237,316.008 672.07,319.008 672,322.5C 672.833,343.508 672.666,364.508 671.5,385.5C 670.833,372.34 670.167,359.34 669.5,346.5C 669.5,335.5 669.5,324.5 669.5,313.5 Z"/>
  </g>
  <g>
    <path style="opacity:1" fill="#1c222b" d="M 121.5,294.5 C 123.5,294.5 125.5,294.5 127.5,294.5C 127.5,311.5 127.5,328.5 127.5,345.5C 113.151,345.833 98.8179,345.499 84.5,344.5C 97.4872,343.667 110.487,343.167 123.5,343C 124.167,342.333 124.833,341.667 125.5,341C 124.805,331.532 124.805,322.365 125.5,313.5C 124.761,309.527 124.095,305.527 123.5,301.5C 124.43,299.895 124.43,298.395 123.5,297C 117.833,296.667 112.167,296.333 106.5,296C 111.684,295.826 116.684,295.326 121.5,294.5 Z"/>
  </g>
  <g>
    <path style="opacity:1" fill="#202c33" d="M 153.5,507.5 C 178.264,575.251 220.264,629.585 279.5,670.5C 299.934,685.056 321.934,697.056 345.5,706.5C 338.835,721.49 330.835,735.823 321.5,749.5C 270.7,729.343 226.533,699.343 189,659.5C 120.028,583.497 83.528,493.831 79.5,390.5C 79.2606,388.533 79.5939,386.699 80.5,385C 96.8299,384.5 113.163,384.333 129.5,384.5C 130.595,424.479 137.428,463.479 150,501.5C 150.716,503.879 151.883,505.879 153.5,507.5 Z"/>
  </g>
  <g>
    <path style="opacity:1" fill="#78818b" d="M 665.5,436.5 C 665.237,441.77 664.237,446.77 662.5,451.5C 662.549,446.184 663.549,441.184 665.5,436.5 Z"/>
  </g>
  <g>
    <path style="opacity:1" fill="#bfc2c4" d="M 542.5,469.5 C 543.656,477.323 543.823,485.323 543,493.5C 542.768,494.737 542.268,495.737 541.5,496.5C 542.383,487.533 542.716,478.533 542.5,469.5 Z"/>
  </g>
  <g>
    <path style="opacity:1" fill="#1f2932" d="M 710.5,466.5 C 693.091,550.017 653.424,620.684 591.5,678.5C 591.389,677.883 591.056,677.383 590.5,677C 596.113,671.387 601.779,665.721 607.5,660C 605.833,659.333 604.167,659.333 602.5,660C 600.983,661.685 599.316,663.185 597.5,664.5C 595.183,663.29 593.183,663.79 591.5,666C 589.236,666.236 587.069,666.736 585,667.5C 583.065,665.898 580.899,664.731 578.5,664C 580.422,662.58 581.755,660.747 582.5,658.5C 584.323,659.747 586.323,660.414 588.5,660.5C 588.178,658.278 588.845,656.444 590.5,655C 590.167,654.667 589.833,654.333 589.5,654C 592.199,652.423 592.866,650.257 591.5,647.5C 588.003,649.391 584.169,648.724 580,645.5C 579.667,646.167 579.333,646.833 579,647.5C 578.405,646.101 578.572,644.768 579.5,643.5C 578.413,642.895 577.246,643.228 576,644.5C 575.333,643.167 575.333,641.833 576,640.5C 578.403,639.121 580.57,637.455 582.5,635.5C 584.779,637.994 587.613,639.661 591,640.5C 592.5,642.833 594,645.167 595.5,647.5C 592.861,652.433 594.361,655.766 600,657.5C 606.729,655.53 611.395,651.53 614,645.5C 613.586,645.043 613.086,644.709 612.5,644.5C 611.333,646.167 610.167,647.833 609,649.5C 608,648.167 607,648.167 606,649.5C 605.039,647.376 603.872,646.209 602.5,646C 603.022,645.05 603.689,644.216 604.5,643.5C 602.185,642.766 600.352,641.432 599,639.5C 598.667,639.833 598.333,640.167 598,640.5C 597.667,638.833 597.333,637.167 597,635.5C 595.691,637.891 594.691,637.891 594,635.5C 591.28,636.711 589.78,635.711 589.5,632.5C 590.263,629.943 591.43,627.61 593,625.5C 594.555,627.146 596.221,627.479 598,626.5C 599.579,628.041 601.413,629.208 603.5,630C 602.833,633.333 602.167,636.667 601.5,640C 603.848,640.11 605.348,641.277 606,643.5C 607.351,641.981 608.851,640.648 610.5,639.5C 610.023,638.522 609.357,637.689 608.5,637C 609.833,636.333 609.833,635.667 608.5,635C 609.167,634.667 609.833,634.333 610.5,634C 608.245,631.256 606.912,628.089 606.5,624.5C 607.325,623.614 608.325,623.281 609.5,623.5C 609.657,622.127 609.49,620.793 609,619.5C 607.334,620.34 607.167,619.84 608.5,618C 607.975,617.308 607.308,616.808 606.5,616.5C 605.289,618.422 603.956,620.255 602.5,622C 603.167,622.333 603.833,622.667 604.5,623C 601.404,623.927 599.07,622.927 597.5,620C 598.449,619.383 599.282,619.549 600,620.5C 602.952,618.807 603.118,616.974 600.5,615C 601.376,613.415 602.709,612.415 604.5,612C 603.376,611.751 602.376,611.251 601.5,610.5C 600.668,607.839 599.834,605.172 599,602.5C 596.374,606.405 594.874,606.405 594.5,602.5C 595.433,599.63 597.1,597.296 599.5,595.5C 599.746,597.795 599.246,599.795 598,601.5C 600.27,600.273 602.103,598.606 603.5,596.5C 604.711,597.274 604.711,598.107 603.5,599C 605.651,601.021 607.151,600.521 608,597.5C 611.821,601.173 615.154,605.173 618,609.5C 618.943,606.891 620.61,604.891 623,603.5C 623.152,606.854 622.819,609.854 622,612.5C 620.493,611.465 618.993,611.632 617.5,613C 619.211,614.435 620.378,616.269 621,618.5C 622.487,616.015 624.321,613.848 626.5,612C 625.289,610.887 625.289,609.72 626.5,608.5C 628.393,606.779 630.059,604.945 631.5,603C 630.746,599.912 629.58,599.746 628,602.5C 626.829,601.107 625.329,600.273 623.5,600C 625.077,597.436 626.077,594.603 626.5,591.5C 624.678,588.67 622.178,586.67 619,585.5C 618.517,584.552 618.351,583.552 618.5,582.5C 620.199,582.34 621.866,582.506 623.5,583C 624.891,584.65 626.391,585.15 628,584.5C 628.333,585.833 628.667,587.167 629,588.5C 629.333,588.167 629.667,587.833 630,587.5C 631.515,584.172 632.681,580.172 633.5,575.5C 632.167,573.833 630.833,572.167 629.5,570.5C 631.411,567.878 633.745,565.711 636.5,564C 635.167,563 633.833,562 632.5,561C 633.5,560.5 634.5,560 635.5,559.5C 637.421,564.492 638.421,564.492 638.5,559.5C 641.044,559.104 643.211,559.771 645,561.5C 645.333,558.833 645.667,556.167 646,553.5C 646.414,553.043 646.914,552.709 647.5,552.5C 647.918,554.566 648.751,556.899 650,559.5C 653.296,558.227 656.796,558.227 660.5,559.5C 660.336,554.996 660.336,550.83 660.5,547C 659.051,545.883 657.384,545.216 655.5,545C 656.264,542.931 656.764,540.764 657,538.5C 657.667,539.167 658.333,539.833 659,540.5C 660,539.167 661,537.833 662,536.5C 663.734,537.249 665.567,537.749 667.5,538C 665.5,538.333 663.5,538.667 661.5,539C 662.624,539.249 663.624,539.749 664.5,540.5C 666.309,546.369 668.642,546.702 671.5,541.5C 673.002,542.083 674.335,542.916 675.5,544C 678.353,544.659 680.02,543.492 680.5,540.5C 680.176,538.431 679.342,538.098 678,539.5C 677.333,538.167 677.333,536.833 678,535.5C 678.333,535.833 678.667,536.167 679,536.5C 681.971,533.97 683.304,530.97 683,527.5C 684,527.167 685,526.833 686,526.5C 686.833,524.833 687.667,523.167 688.5,521.5C 688.744,518.547 688.244,515.547 687,512.5C 684.505,510.851 683.005,508.517 682.5,505.5C 682.877,503.176 683.877,502.509 685.5,503.5C 686.583,502.635 686.749,501.635 686,500.5C 683.256,500.786 680.423,500.453 677.5,499.5C 677.688,497.897 677.188,496.563 676,495.5C 674.851,498.018 674.018,500.684 673.5,503.5C 671.955,504.452 670.288,504.785 668.5,504.5C 668.5,503.5 668.5,502.5 668.5,501.5C 667.5,501.5 666.5,501.5 665.5,501.5C 665.336,498.813 665.503,496.146 666,493.5C 666.626,495.991 667.459,495.991 668.5,493.5C 669.598,497.361 670.431,497.361 671,493.5C 672.868,494.672 674.702,494.505 676.5,493C 677.034,489.505 678.367,486.338 680.5,483.5C 684.493,479.635 688.16,479.801 691.5,484C 691.167,484.333 690.833,484.667 690.5,485C 691.293,486.085 691.96,487.252 692.5,488.5C 689.889,490.798 690.389,492.465 694,493.5C 696.626,491.31 698.126,488.477 698.5,485C 700.527,485.498 702.527,485.331 704.5,484.5C 705.838,477.806 707.338,471.139 709,464.5C 709.717,465.044 710.217,465.711 710.5,466.5 Z"/>
  </g>
  <g>
    <path style="opacity:1" fill="#616a70" d="M 349.5,582.5 C 356.554,582.817 363.554,583.65 370.5,585C 371.252,585.671 371.586,586.504 371.5,587.5C 364.157,585.567 356.824,583.9 349.5,582.5 Z"/>
  </g>
  <g>
    <path style="opacity:1" fill="#d0d4df" d="M 202.5,537.5 C 232.55,589.883 273.883,630.883 326.5,660.5C 323.801,660.534 321.301,659.867 319,658.5C 318.735,660.163 319.235,661.663 320.5,663C 317.999,664.418 318.332,665.418 321.5,666C 320.062,666.219 318.729,666.719 317.5,667.5C 319.162,668.327 320.495,669.493 321.5,671C 322.784,671.684 323.951,671.517 325,670.5C 325.409,673.358 324.409,675.691 322,677.5C 319.101,674.733 317.101,675.4 316,679.5C 315.53,677.226 314.53,675.226 313,673.5C 312.08,673.07 311.247,672.736 310.5,672.5C 311.165,670.899 311.499,669.399 311.5,668C 308.871,665.211 309.538,663.211 313.5,662C 311.44,660.304 309.107,659.137 306.5,658.5C 302.625,659.759 298.791,661.092 295,662.5C 293.853,661.542 292.853,661.875 292,663.5C 292.999,658.518 291.333,657.518 287,660.5C 284.728,664.136 283.394,668.136 283,672.5C 282.184,671.177 281.017,670.511 279.5,670.5C 220.264,629.585 178.264,575.251 153.5,507.5C 153.343,506.127 153.51,504.793 154,503.5C 155.909,507.315 157.242,511.315 158,515.5C 160.646,520.386 163.146,525.386 165.5,530.5C 166.376,531.251 167.376,531.751 168.5,532C 167.151,533.635 167.318,535.135 169,536.5C 169.333,534.833 169.667,533.167 170,531.5C 170.669,534.028 171.502,534.028 172.5,531.5C 171.522,528.004 172.356,527.67 175,530.5C 175.658,528.892 175.158,527.725 173.5,527C 174.274,524.595 174.774,522.095 175,519.5C 177.808,522.498 179.141,521.831 179,517.5C 181.548,518.524 184.048,519.69 186.5,521C 186.167,522.667 185.833,524.333 185.5,526C 186.167,526.333 186.833,526.667 187.5,527C 186.167,527.667 186.167,528.333 187.5,529C 189.81,529.497 192.143,529.663 194.5,529.5C 194.429,532.024 195.429,534.024 197.5,535.5C 196.675,536.386 195.675,536.719 194.5,536.5C 194.5,537.5 194.5,538.5 194.5,539.5C 192.029,539.233 190.362,540.233 189.5,542.5C 192.363,549.045 194.696,548.711 196.5,541.5C 198.167,541.5 199.833,541.5 201.5,541.5C 201.281,542.675 201.614,543.675 202.5,544.5C 203.78,542.276 203.447,540.276 201.5,538.5C 201.624,537.893 201.957,537.56 202.5,537.5 Z"/>
  </g>
  <g>
    <path style="opacity:1" fill="#202b32" d="M 594.5,602.5 C 594.874,606.405 596.374,606.405 599,602.5C 599.834,605.172 600.668,607.839 601.5,610.5C 602.376,611.251 603.376,611.751 604.5,612C 602.709,612.415 601.376,613.415 600.5,615C 603.118,616.974 602.952,618.807 600,620.5C 599.282,619.549 598.449,619.383 597.5,620C 599.07,622.927 601.404,623.927 604.5,623C 603.833,622.667 603.167,622.333 602.5,622C 603.956,620.255 605.289,618.422 606.5,616.5C 607.308,616.808 607.975,617.308 608.5,618C 607.167,619.84 607.334,620.34 609,619.5C 609.49,620.793 609.657,622.127 609.5,623.5C 608.325,623.281 607.325,623.614 606.5,624.5C 606.912,628.089 608.245,631.256 610.5,634C 609.833,634.333 609.167,634.667 608.5,635C 609.833,635.667 609.833,636.333 608.5,637C 609.357,637.689 610.023,638.522 610.5,639.5C 608.851,640.648 607.351,641.981 606,643.5C 605.348,641.277 603.848,640.11 601.5,640C 602.167,636.667 602.833,633.333 603.5,630C 601.413,629.208 599.579,628.041 598,626.5C 596.221,627.479 594.555,627.146 593,625.5C 591.43,627.61 590.263,629.943 589.5,632.5C 589.78,635.711 591.28,636.711 594,635.5C 594.691,637.891 595.691,637.891 597,635.5C 597.333,637.167 597.667,638.833 598,640.5C 598.333,640.167 598.667,639.833 599,639.5C 600.352,641.432 602.185,642.766 604.5,643.5C 603.689,644.216 603.022,645.05 602.5,646C 603.872,646.209 605.039,647.376 606,649.5C 607,648.167 608,648.167 609,649.5C 610.167,647.833 611.333,646.167 612.5,644.5C 613.086,644.709 613.586,645.043 614,645.5C 611.395,651.53 606.729,655.53 600,657.5C 594.361,655.766 592.861,652.433 595.5,647.5C 594,645.167 592.5,642.833 591,640.5C 587.613,639.661 584.779,637.994 582.5,635.5C 580.57,637.455 578.403,639.121 576,640.5C 575.333,641.833 575.333,643.167 576,644.5C 577.246,643.228 578.413,642.895 579.5,643.5C 578.572,644.768 578.405,646.101 579,647.5C 579.333,646.833 579.667,646.167 580,645.5C 584.169,648.724 588.003,649.391 591.5,647.5C 592.866,650.257 592.199,652.423 589.5,654C 589.833,654.333 590.167,654.667 590.5,655C 588.845,656.444 588.178,658.278 588.5,660.5C 586.323,660.414 584.323,659.747 582.5,658.5C 581.755,660.747 580.422,662.58 578.5,664C 580.899,664.731 583.065,665.898 585,667.5C 587.069,666.736 589.236,666.236 591.5,666C 593.183,663.79 595.183,663.29 597.5,664.5C 599.316,663.185 600.983,661.685 602.5,660C 604.167,659.333 605.833,659.333 607.5,660C 601.779,665.721 596.113,671.387 590.5,677C 591.056,677.383 591.389,677.883 591.5,678.5C 534.794,731.427 467.627,763.094 390,773.5C 379.811,771.603 369.978,768.603 360.5,764.5C 360.351,763.448 360.517,762.448 361,761.5C 368.973,748.384 376.806,735.217 384.5,722C 400.625,720.848 416.459,718.015 432,713.5C 497.129,692.536 551.296,655.536 594.5,602.5 Z"/>
  </g>
  <g transform="matrix(-1, 0, 0, 1, 799.1674194335938, 0.8970320224761963)" style="">
    <path style="opacity:1" fill="#202c33" d="M 153.5,507.5 C 178.264,575.251 220.264,629.585 279.5,670.5C 299.934,685.056 321.934,697.056 345.5,706.5C 338.835,721.49 330.835,735.823 321.5,749.5C 270.7,729.343 226.533,699.343 189,659.5C 120.028,583.497 83.528,493.831 79.5,390.5C 79.2606,388.533 79.5939,386.699 80.5,385C 96.8299,384.5 113.163,384.333 129.5,384.5C 130.595,424.479 137.428,463.479 150,501.5C 150.716,503.879 151.883,505.879 153.5,507.5 Z"/>
  </g>
</svg>
